<svg width="118" height="34" viewBox="0 0 118 34" fill="none" xmlns="http://www.w3.org/2000/svg">
<g clip-path="url(#clip0_46_667)">
<path d="M26.2486 21.867C25.4745 22.6971 23.5317 22.4636 18.0518 22.4636C15.7052 22.4636 15.6534 21.3156 15.5741 19.5581C15.5514 19.0555 15.5265 18.5031 15.445 17.9134L14.2366 5.08923C14.2157 4.76195 14.1797 4.41516 14.1431 4.06289C13.9451 2.15361 13.7302 0.0831984 15.802 0.0831984C24.3175 0.0831984 27.255 -0.349862 28.0898 0.760055C28.6135 1.45641 28.3095 2.76012 28.036 5.15919L26.962 18.1833C26.7604 20.208 26.7846 21.2924 26.2486 21.867Z" fill="#FFE900"/>
<path d="M14.0221 25.534C13.0103 26.7246 9.96402 26.2283 2.30352 26.2283C-0.294924 26.2283 -0.109428 24.6991 0.126111 22.7573C0.176299 22.3436 0.228758 21.9111 0.257043 21.4707L1.45147 8.30078C1.48012 7.91643 1.49671 7.55182 1.5123 7.20913C1.60619 5.14531 1.66391 3.87631 4.10329 3.87631C9.63277 3.87631 11.5887 3.65421 12.3478 4.49118C12.9031 5.10358 12.8177 6.28296 13.0224 8.53118C13.2216 10.7196 13.3967 12.9237 13.5613 15.1051C14.0497 21.5765 15.0143 24.3665 14.0221 25.534Z" fill="#FFE900"/>
<path d="M114.581 11.9639C116.077 11.9639 117.29 12.9462 117.29 14.1586C117.29 15.3707 116.077 16.353 114.581 16.353C113.085 16.353 111.873 15.3707 111.873 14.1586C111.873 12.9462 113.085 11.9639 114.581 11.9639Z" fill="#FAFAFA"/>
<path d="M38.567 20.9628L38.5095 18.8159L34.5053 18.7783L34.4883 33.5525L38.5112 33.5931L38.5421 25.2345C38.574 20.9628 44.7438 20.3874 44.7602 24.5226L44.7837 30.4322C44.7909 32.186 46.2387 33.6144 48.0149 33.614L50.4142 33.6137L50.4025 30.7645L49.4244 30.76C49.0684 30.7583 48.7792 30.472 48.7786 30.1204L48.7608 22.6775C48.7608 21.8362 48.3529 18.5705 43.7051 18.3396C42.0335 18.2569 40.1105 18.7522 38.567 20.9628Z" fill="#FAFAFA"/>
<path fill-rule="evenodd" clip-rule="evenodd" d="M61.8798 31.3799C63.0851 33.5848 64.2479 33.6992 67.2409 33.388L67.2369 30.2796L66.4501 30.2754C66.0941 30.2736 65.8049 29.9866 65.8049 29.635L65.803 18.7819L61.7219 18.7705L61.6985 20.6091C58.8587 16.8661 51.1964 17.2967 51.1964 26.275C51.1964 33.821 58.2365 36.465 61.8798 31.3799ZM55.1587 26.1714C55.2186 23.8842 55.8739 21.5729 58.2697 21.4867C62.5396 21.3331 61.9111 27.4313 60.9393 29.461C59.9745 31.4755 54.9987 32.2337 55.1587 26.1714Z" fill="#FAFAFA"/>
<path d="M105.137 30.5549C106.395 30.339 106.978 29.5284 106.349 28.666C105.304 27.9707 104.014 27.6884 102.754 27.4127C101.593 27.1587 100.458 26.9102 99.5616 26.3497C95.6646 23.9124 97.1038 17.5275 105.778 18.7164C107.851 19.0001 109.338 19.7302 109.875 20.3745L109.837 23.7223C108.493 21.9486 102.302 20.3859 101.571 22.3416C100.982 23.9188 102.249 24.1834 104.321 24.6162C105.223 24.8045 106.277 25.0246 107.396 25.3986C109.36 26.0546 111.729 27.902 110.468 30.6361C108.687 34.4974 101.793 34.6166 97.7022 32.0613L97.8697 28.3258C98.0551 28.4361 98.2432 28.5509 98.4348 28.6678C100.23 29.7629 102.321 31.0385 105.137 30.5549Z" fill="#FAFAFA"/>
<path d="M72.8208 20.8205C72.1146 19.1511 69.9431 18.4287 67.9201 19.0131L67.9137 21.4512L68.6433 21.46C68.998 21.4644 69.2844 21.7508 69.2841 22.1011L69.2776 33.5778L73.5184 33.569L73.4366 25.825C73.4051 22.8112 74.8892 21.0963 79.0322 22.2667C79.1182 21.5774 79.4431 20.8467 79.7553 20.1446C79.9348 19.7408 80.1102 19.3465 80.2335 18.9749C76.7502 17.5287 73.7198 19.0157 72.8208 20.8205Z" fill="#FAFAFA"/>
<path d="M117.988 30.8914L117.997 33.5216C113.275 33.6207 112.495 32.4707 112.499 28.8695C112.5 27.8057 112.492 26.7285 112.483 25.6473C112.464 23.3453 112.445 21.024 112.524 18.773L116.493 18.7676L116.506 30.2391C116.506 30.5884 116.791 30.8743 117.145 30.8794L117.988 30.8914Z" fill="#FAFAFA"/>
<path fill-rule="evenodd" clip-rule="evenodd" d="M96.2232 33.388C93.2301 33.6992 92.0673 33.5848 90.8621 31.3799C87.2188 36.465 80.1786 33.821 80.1786 26.275C80.1786 17.2967 87.841 16.8661 90.6807 20.6091L90.7042 18.7705L94.7852 18.7819L94.7871 29.635C94.7871 29.9866 95.0765 30.2736 95.4323 30.2754L96.2193 30.2796L96.2232 33.388ZM87.2519 21.4867C84.8561 21.5729 84.2009 23.8842 84.1409 26.1714C83.9811 32.2337 88.9569 31.4755 89.9215 29.461C90.8933 27.4313 91.5218 21.3331 87.2519 21.4867Z" fill="#FAFAFA"/>
</g>
<defs>
<clipPath id="clip0_46_667">
<rect width="118" height="34" fill="white"/>
</clipPath>
</defs>
</svg>
