<svg width="15" height="15" viewBox="0 0 15 15" fill="none" xmlns="http://www.w3.org/2000/svg" class="search-icon" data-v-d6906dbc=""><path d="M10.9172 9.6667H10.2589L10.0255 9.4417C11.0255 8.27503 11.5422 6.68337 11.2589 4.9917C10.8672 2.67503 8.93385 0.825033 6.60052 0.5417C3.07552 0.108366 0.108855 3.07503 0.542188 6.60003C0.825521 8.93337 2.67552 10.8667 4.99219 11.2584C6.68385 11.5417 8.27552 11.025 9.44219 10.025L9.66719 10.2584V10.9167L13.2089 14.4584C13.5505 14.8 14.1089 14.8 14.4505 14.4584C14.7922 14.1167 14.7922 13.5584 14.4505 13.2167L10.9172 9.6667ZM5.91719 9.6667C3.84219 9.6667 2.16719 7.9917 2.16719 5.9167C2.16719 3.8417 3.84219 2.1667 5.91719 2.1667C7.99219 2.1667 9.66719 3.8417 9.66719 5.9167C9.66719 7.9917 7.99219 9.6667 5.91719 9.6667Z" fill="#BDBDBD"></path></svg>